<svg width="49" height="49" viewBox="0 0 49 49" fill="none" xmlns="http://www.w3.org/2000/svg">
<path d="M24.4212 4.59574C24.4473 4.59442 24.4736 4.59375 24.5 4.59375C24.8919 4.59375 25.2838 4.74325 25.5828 5.04224L31.7078 11.1672C32.3057 11.7652 32.3057 12.7348 31.7078 13.3328C31.1098 13.9307 30.1402 13.9307 29.5422 13.3328L26.0312 9.82177L26.0312 42.875C26.0312 43.7207 25.3457 44.4062 24.5 44.4062C23.6543 44.4062 22.9687 43.7207 22.9687 42.875L22.9687 9.82177L19.4578 13.3328C18.8598 13.9307 17.8902 13.9307 17.2922 13.3328C16.6943 12.7348 16.6943 11.7652 17.2922 11.1672L23.4172 5.04224C23.5641 4.89543 23.7333 4.78467 23.9139 4.70994C24.0714 4.6446 24.2423 4.60481 24.4212 4.59574Z" fill="currentColor"/>
</svg>
