<svg width="21" height="21" viewBox="0 0 21 21" fill="none" xmlns="http://www.w3.org/2000/svg">
<path d="M5.76512 16.1006C6.01869 16.3541 6.01869 16.7652 5.76512 17.0188C5.51155 17.2724 5.10043 17.2724 4.84686 17.0188L2.25144 14.4234C2.13288 14.3057 2.05946 14.1427 2.05946 13.9624C2.05946 13.7952 2.12266 13.6428 2.22648 13.5277C2.23397 13.5194 2.24169 13.5113 2.24964 13.5033L4.84686 10.9061C5.10043 10.6525 5.51155 10.6525 5.76512 10.9061C6.01869 11.1597 6.01869 11.5708 5.76512 11.8244L4.27633 13.3132L13.0977 13.3132C13.4563 13.3132 13.747 13.6039 13.747 13.9625C13.747 14.3211 13.4563 14.6118 13.0977 14.6118L4.27633 14.6118L5.76512 16.1006Z" fill="currentColor"/>
<path d="M16.7245 7.68584L15.2358 9.17463C14.9822 9.4282 14.9822 9.83931 15.2358 10.0929C15.4893 10.3465 15.9004 10.3465 16.154 10.0929L18.7512 7.49566C18.8135 7.43341 18.8605 7.36166 18.8921 7.28508C18.9239 7.20852 18.9414 7.12457 18.9414 7.03653C18.9414 6.94849 18.9239 6.86455 18.8921 6.78799C18.8605 6.71141 18.8135 6.63966 18.7512 6.57741L16.154 3.98018C15.9004 3.72661 15.4893 3.72661 15.2358 3.98018C14.9822 4.23374 14.9822 4.64486 15.2358 4.89843L16.7245 6.38723L7.90321 6.38723C7.54461 6.38723 7.25391 6.67793 7.25391 7.03653C7.25391 7.39513 7.54461 7.68584 7.90321 7.68584L16.7245 7.68584Z" fill="currentColor"/>
</svg>
