<svg width="21" height="21" viewBox="0 0 21 21" fill="none" xmlns="http://www.w3.org/2000/svg">
<path fill-rule="evenodd" clip-rule="evenodd" d="M3.76369 4.23409L3.04749 5.66648C2.47229 6.81689 2.22793 8.12034 2.64709 9.33631C3.15057 10.7969 4.15723 12.8902 6.1329 14.8658C8.10858 16.8415 10.2018 17.8482 11.6624 18.3516C12.8784 18.7708 14.1819 18.5264 15.3323 17.9512L16.8125 17.2111C17.8161 16.7093 18.0472 15.3793 17.2717 14.5685L15.6388 12.8611C15.0666 12.2628 14.1392 12.1822 13.4724 12.6728C12.7246 13.223 11.7247 13.3168 10.9409 12.8193C10.4732 12.5224 9.97548 12.1681 9.62238 11.815C9.21267 11.4053 8.80129 10.8008 8.47996 10.2745C8.06951 9.60228 8.07537 8.76863 8.42762 8.06413L8.64656 7.62624C8.96738 6.9846 8.84163 6.20964 8.33436 5.70238L6.43291 3.80093C5.62851 2.99653 4.27244 3.21659 3.76369 4.23409ZM4.88172 4.7931L4.16553 6.2255C3.68577 7.18501 3.55352 8.13023 3.82885 8.92895C4.28588 10.2548 5.20509 12.1702 7.01679 13.9819C8.82849 15.7937 10.7439 16.7129 12.0698 17.1699C12.8685 17.4452 13.8137 17.313 14.7732 16.8332L16.2535 16.0931C16.5044 15.9676 16.5622 15.6351 16.3683 15.4324L14.7354 13.725C14.5975 13.5808 14.374 13.5614 14.2132 13.6797C13.1061 14.4943 11.5459 14.6838 10.271 13.8746C9.78005 13.563 9.18989 13.1502 8.7385 12.6988C8.21944 12.1798 7.74535 11.4701 7.41309 10.9259C6.75201 9.84317 6.78821 8.54785 7.30958 7.50511L7.52852 7.06723C7.60873 6.90681 7.57729 6.71308 7.45048 6.58626L5.54903 4.68481C5.34793 4.48371 5.00891 4.53873 4.88172 4.7931Z" fill="currentColor"/>
<path d="M13.4459 7.26693C12.9013 6.72235 12.2396 6.4291 11.737 6.50089C11.5092 6.53343 11.2982 6.37513 11.2656 6.14733C11.2331 5.91952 11.3914 5.70847 11.6192 5.67593C12.4916 5.55131 13.4012 6.04375 14.0351 6.67768C14.6691 7.31161 15.1615 8.22126 15.0369 9.09363C15.0043 9.32144 14.7933 9.47973 14.5654 9.44719C14.3376 9.41464 14.1794 9.20359 14.2119 8.97578C14.2837 8.47322 13.9905 7.81152 13.4459 7.26693Z" fill="currentColor"/>
<path d="M11.2366 8.24576C12.04 7.94105 12.7718 8.67282 12.467 9.47619C12.3854 9.69135 12.4937 9.93193 12.7088 10.0135C12.924 10.0952 13.1646 9.9869 13.2462 9.77174C13.8057 8.29664 12.4162 6.90709 10.9411 7.46659C10.7259 7.5482 10.6177 7.78878 10.6993 8.00394C10.7809 8.2191 11.0215 8.32737 11.2366 8.24576Z" fill="currentColor"/>
</svg>
