<svg width="14" height="13" viewBox="0 0 14 13" fill="none" xmlns="http://www.w3.org/2000/svg">
<path d="M4.03726 2.96274C3.87861 2.80409 3.62139 2.80409 3.46274 2.96274C3.30409 3.12139 3.30409 3.37861 3.46274 3.53726L6.42548 6.5L3.46274 9.46274C3.30409 9.62139 3.30409 9.87861 3.46274 10.0373C3.62139 10.1959 3.87861 10.1959 4.03726 10.0373L7 7.07452L9.96274 10.0373C10.1214 10.1959 10.3786 10.1959 10.5373 10.0373C10.6959 9.87861 10.6959 9.62139 10.5373 9.46274L7.57452 6.5L10.5373 3.53726C10.6959 3.37861 10.6959 3.12139 10.5373 2.96274C10.3786 2.80409 10.1214 2.80409 9.96274 2.96274L7 5.92548L4.03726 2.96274Z" fill="#211C29"/>
</svg>
