<svg width="30" height="30" viewBox="0 0 30 30" fill="none" xmlns="http://www.w3.org/2000/svg">
<path d="M8.16291 6.83709C7.7968 6.47097 7.2032 6.47097 6.83709 6.83709C6.47097 7.2032 6.47097 7.7968 6.83709 8.16291L13.6742 15L6.83709 21.8371C6.47097 22.2032 6.47097 22.7968 6.83709 23.1629C7.2032 23.529 7.7968 23.529 8.16291 23.1629L15 16.3258L21.8371 23.1629C22.2032 23.529 22.7968 23.529 23.1629 23.1629C23.529 22.7968 23.529 22.2032 23.1629 21.8371L16.3258 15L23.1629 8.16291C23.529 7.7968 23.529 7.2032 23.1629 6.83709C22.7968 6.47097 22.2032 6.47097 21.8371 6.83709L15 13.6742L8.16291 6.83709Z" fill="currentColor"/>
</svg>
