<svg width="30" height="30" viewBox="0 0 30 30" fill="none" xmlns="http://www.w3.org/2000/svg">
<path fill-rule="evenodd" clip-rule="evenodd" d="M15 0C23.2787 0 30 6.72129 30 15C30 23.2787 23.2787 30 15 30C6.72129 30 0 23.2787 0 15C0 6.72129 6.72129 0 15 0ZM15 5.625C12.4539 5.625 12.1346 5.63578 11.1347 5.68143C10.1368 5.72695 9.45533 5.88545 8.85896 6.11719C8.2425 6.35678 7.71967 6.67734 7.19848 7.19854C6.67728 7.71973 6.35672 8.24256 6.11713 8.85902C5.88539 9.45533 5.72695 10.1368 5.68137 11.1347C5.63578 12.1346 5.625 12.4539 5.625 15C5.625 17.5461 5.63578 17.8654 5.68137 18.8653C5.72695 19.8632 5.88539 20.5447 6.11713 21.141C6.35672 21.7574 6.67728 22.2803 7.19848 22.8015C7.71967 23.3227 8.2425 23.6433 8.85896 23.8829C9.45533 24.1146 10.1368 24.273 11.1347 24.3186C12.1346 24.3642 12.4539 24.375 15 24.375C17.5461 24.375 17.8654 24.3642 18.8653 24.3186C19.8632 24.273 20.5447 24.1146 21.141 23.8829C21.7574 23.6433 22.2803 23.3227 22.8015 22.8015C23.3227 22.2803 23.6433 21.7574 23.8829 21.141C24.1146 20.5447 24.273 19.8632 24.3186 18.8653C24.3642 17.8654 24.375 17.5461 24.375 15C24.375 12.4539 24.3642 12.1346 24.3186 11.1347C24.273 10.1368 24.1146 9.45533 23.8829 8.85902C23.6433 8.24256 23.3227 7.71973 22.8015 7.19854C22.2803 6.67734 21.7574 6.35678 21.141 6.11719C20.5447 5.88545 19.8632 5.72695 18.8653 5.68143C17.8654 5.63578 17.5461 5.625 15 5.625ZM15 7.3142C17.5032 7.3142 17.7997 7.32375 18.7883 7.36887C19.7024 7.41059 20.1987 7.56328 20.5291 7.69166C20.9667 7.8617 21.279 8.0649 21.607 8.39297C21.9352 8.72098 22.1383 9.03334 22.3083 9.47092C22.4367 9.80127 22.5895 10.2976 22.6311 11.2117C22.6763 12.2003 22.6858 12.4968 22.6858 15C22.6858 17.5032 22.6763 17.7997 22.6311 18.7883C22.5895 19.7024 22.4367 20.1987 22.3083 20.5291C22.1383 20.9667 21.9352 21.279 21.607 21.607C21.279 21.9352 20.9667 22.1383 20.5291 22.3083C20.1987 22.4367 19.7024 22.5895 18.7883 22.6311C17.7999 22.6763 17.5034 22.6858 15 22.6858C12.4966 22.6858 12.2002 22.6763 11.2117 22.6311C10.2976 22.5895 9.80127 22.4367 9.47092 22.3083C9.03328 22.1383 8.72098 21.9352 8.39291 21.607C8.06484 21.279 7.8617 20.9667 7.69166 20.5291C7.56328 20.1987 7.41053 19.7024 7.36881 18.7883C7.32369 17.7997 7.3142 17.5032 7.3142 15C7.3142 12.4968 7.32369 12.2003 7.36881 11.2117C7.41053 10.2976 7.56328 9.80127 7.69166 9.47092C7.8617 9.03334 8.06484 8.72098 8.39291 8.39297C8.72098 8.0649 9.03328 7.8617 9.47092 7.69166C9.80127 7.56328 10.2976 7.41059 11.2117 7.36887C12.2003 7.32375 12.4968 7.3142 15 7.3142ZM15 10.1858C12.3412 10.1858 10.1858 12.3412 10.1858 15C10.1858 17.6588 12.3412 19.8142 15 19.8142C17.6588 19.8142 19.8142 17.6588 19.8142 15C19.8142 12.3412 17.6588 10.1858 15 10.1858ZM15 18.125C13.2741 18.125 11.875 16.7259 11.875 15C11.875 13.2741 13.2741 11.875 15 11.875C16.7259 11.875 18.125 13.2741 18.125 15C18.125 16.7259 16.7259 18.125 15 18.125ZM21.1294 9.99562C21.1294 10.617 20.6257 11.1206 20.0044 11.1206C19.3831 11.1206 18.8794 10.617 18.8794 9.99562C18.8794 9.3743 19.3831 8.87062 20.0044 8.87062C20.6257 8.87062 21.1294 9.3743 21.1294 9.99562Z" fill="#82FE95"/>
</svg>
