<svg width="22" height="15" viewBox="0 0 22 15" fill="none" xmlns="http://www.w3.org/2000/svg">
<path d="M13.8647 14.8945C11.8004 14.8945 10.0519 14.1782 8.61925 12.7455C7.18656 11.3128 6.47021 9.56431 6.47021 7.5C6.47021 5.4511 7.18656 3.70645 8.61925 2.26606C10.0519 0.825665 11.8004 0.105469 13.8647 0.105469C15.9136 0.105469 17.6583 0.825665 19.0987 2.26606C20.5391 3.70645 21.2593 5.4511 21.2593 7.5C21.2593 9.56431 20.5391 11.3128 19.0987 12.7455C17.6583 14.1782 15.9136 14.8945 13.8647 14.8945ZM13.8647 13.0459C15.4053 13.0459 16.7147 12.5067 17.7931 11.4283C18.8715 10.35 19.4106 9.04053 19.4106 7.5C19.4106 5.95947 18.8715 4.65002 17.7931 3.57166C16.7147 2.49329 15.4053 1.9541 13.8647 1.9541C12.3242 1.9541 11.0148 2.49329 9.9364 3.57166C8.85803 4.65002 8.31885 5.95947 8.31885 7.5C8.31885 9.04053 8.85803 10.35 9.9364 11.4283C11.0148 12.5067 12.3242 13.0459 13.8647 13.0459ZM15.9676 10.9431L17.2847 9.62593L14.7891 7.13027V3.80273H12.9404V7.89283L15.9676 10.9431ZM1.84863 4.72705V2.87842H5.5459V4.72705H1.84863ZM0.924316 8.42432V6.57568H5.5459V8.42432H0.924316ZM1.84863 12.1216V10.2729H5.5459V12.1216H1.84863Z" fill="white"/>
</svg>
