<svg width="44" height="30" viewBox="0 0 44 30" fill="none" xmlns="http://www.w3.org/2000/svg">
<path d="M8.84947 29.824C7.3335 29.824 6.04791 29.2942 4.9927 28.2345C3.93784 27.1751 3.41041 25.8886 3.41041 24.3751H0.525513V3.78237C0.525513 2.82335 0.846693 2.02265 1.48905 1.38029C2.13142 0.737929 2.93211 0.416748 3.89114 0.416748H31.4552V7.94904H36.263L43.4745 17.6444V24.3751H40.1088C40.1088 25.8886 39.5783 27.1751 38.5172 28.2345C37.4557 29.2942 36.167 29.824 34.651 29.824C33.1347 29.824 31.8491 29.2942 30.7943 28.2345C29.7391 27.1751 29.2115 25.8886 29.2115 24.3751H14.3078C14.3078 25.8977 13.7771 27.1864 12.7156 28.2412C11.6545 29.2964 10.3658 29.824 8.84947 29.824ZM8.85885 27.7407C9.79635 27.7407 10.5917 27.4141 11.2448 26.761C11.8979 26.1079 12.2245 25.3126 12.2245 24.3751C12.2245 23.4376 11.8979 22.6423 11.2448 21.9891C10.5917 21.336 9.79635 21.0095 8.85885 21.0095C7.92135 21.0095 7.12603 21.336 6.47291 21.9891C5.82013 22.6423 5.49374 23.4376 5.49374 24.3751C5.49374 25.3126 5.82013 26.1079 6.47291 26.761C7.12603 27.4141 7.92135 27.7407 8.85885 27.7407ZM2.60885 22.2917H3.9552C4.25173 21.373 4.85537 20.5824 5.76614 19.9199C6.6769 19.2574 7.7078 18.9261 8.85885 18.9261C9.95676 18.9261 10.9745 19.2508 11.912 19.9001C12.8495 20.549 13.4665 21.3463 13.763 22.2917H29.3719V2.50008H3.89114C3.57065 2.50008 3.27673 2.63359 3.00937 2.9006C2.74235 3.16762 2.60885 3.46154 2.60885 3.78237V22.2917ZM34.6604 27.7407C35.5979 27.7407 36.393 27.4141 37.0458 26.761C37.699 26.1079 38.0255 25.3126 38.0255 24.3751C38.0255 23.4376 37.699 22.6423 37.0458 21.9891C36.393 21.336 35.5979 21.0095 34.6604 21.0095C33.7229 21.0095 32.9276 21.336 32.2745 21.9891C31.6213 22.6423 31.2948 23.4376 31.2948 24.3751C31.2948 25.3126 31.6213 26.1079 32.2745 26.761C32.9276 27.4141 33.7229 27.7407 34.6604 27.7407ZM31.4552 18.1251H41.2708L35.1411 10.0324H31.4552V18.1251Z" fill="#43B94B"/>
</svg>
