<svg width="17" height="21" viewBox="0 0 17 21" fill="none" xmlns="http://www.w3.org/2000/svg">
<path d="M8.12988 10.2393C8.67988 10.2393 9.15072 10.0434 9.54238 9.65176C9.93405 9.26009 10.1299 8.78926 10.1299 8.23926C10.1299 7.68926 9.93405 7.21842 9.54238 6.82676C9.15072 6.43509 8.67988 6.23926 8.12988 6.23926C7.57988 6.23926 7.10905 6.43509 6.71738 6.82676C6.32572 7.21842 6.12988 7.68926 6.12988 8.23926C6.12988 8.78926 6.32572 9.26009 6.71738 9.65176C7.10905 10.0434 7.57988 10.2393 8.12988 10.2393ZM8.12988 20.2393C5.44655 17.9559 3.44238 15.8351 2.11738 13.8768C0.792383 11.9184 0.129883 10.1059 0.129883 8.43926C0.129883 5.93926 0.934049 3.94759 2.54238 2.46426C4.15072 0.980925 6.01322 0.239258 8.12988 0.239258C10.2465 0.239258 12.109 0.980925 13.7174 2.46426C15.3257 3.94759 16.1299 5.93926 16.1299 8.43926C16.1299 10.1059 15.4674 11.9184 14.1424 13.8768C12.8174 15.8351 10.8132 17.9559 8.12988 20.2393Z" fill="white"/>
</svg>
