<svg width="21" height="20" viewBox="0 0 21 20" fill="none" xmlns="http://www.w3.org/2000/svg">
<path d="M13.4299 14.7L14.8299 13.3L11.1299 9.6V5H9.12988V10.4L13.4299 14.7ZM10.1299 20C8.74655 20 7.44655 19.7375 6.22988 19.2125C5.01322 18.6875 3.95488 17.975 3.05488 17.075C2.15488 16.175 1.44238 15.1167 0.917383 13.9C0.392383 12.6833 0.129883 11.3833 0.129883 10C0.129883 8.61667 0.392383 7.31667 0.917383 6.1C1.44238 4.88333 2.15488 3.825 3.05488 2.925C3.95488 2.025 5.01322 1.3125 6.22988 0.7875C7.44655 0.2625 8.74655 0 10.1299 0C11.5132 0 12.8132 0.2625 14.0299 0.7875C15.2465 1.3125 16.3049 2.025 17.2049 2.925C18.1049 3.825 18.8174 4.88333 19.3424 6.1C19.8674 7.31667 20.1299 8.61667 20.1299 10C20.1299 11.3833 19.8674 12.6833 19.3424 13.9C18.8174 15.1167 18.1049 16.175 17.2049 17.075C16.3049 17.975 15.2465 18.6875 14.0299 19.2125C12.8132 19.7375 11.5132 20 10.1299 20Z" fill="white"/>
</svg>
