<svg width="30" height="30" viewBox="0 0 30 30" fill="none" xmlns="http://www.w3.org/2000/svg">
<path fill-rule="evenodd" clip-rule="evenodd" d="M14.9427 29.9999L14.9561 29.9999H14.9515L14.9427 29.9999ZM15.0485 29.9999H15.0439L15.0573 29.9999L15.0485 29.9999ZM14.8969 29.9996L14.9113 29.9997H14.903L14.8969 29.9996ZM15.097 29.9997H15.0887L15.1031 29.9996L15.097 29.9997ZM14.8527 29.9993L14.8624 29.9994L14.8546 29.9993H14.8527ZM15.1454 29.9993L15.1376 29.9994L15.1473 29.9993H15.1454ZM15.1938 29.9988L15.1904 29.9988L15.2034 29.9987L15.1938 29.9988ZM14.7966 29.9987L14.8096 29.9988L14.8062 29.9988L14.7966 29.9987ZM15.2421 29.9981L15.2342 29.9982L15.2503 29.9979L15.2421 29.9981ZM14.7497 29.9979L14.7658 29.9982L14.7579 29.9981L14.7497 29.9979ZM15.2904 29.9972L15.2797 29.9974L15.2946 29.9971L15.2904 29.9972ZM14.7054 29.9971L14.7203 29.9974L14.7096 29.9972L14.7054 29.9971ZM14.6505 29.996L14.6637 29.9963L14.6613 29.9963L14.6505 29.996ZM15.3387 29.9963L15.3363 29.9963L15.3495 29.996L15.3387 29.9963ZM14.6023 29.9948L14.6204 29.9953L14.6131 29.9951L14.6023 29.9948ZM15.3869 29.9951L15.3796 29.9953L15.3977 29.9948L15.3869 29.9951ZM15.4351 29.9938L15.4233 29.9941L15.4419 29.9936L15.4351 29.9938ZM14.5581 29.9936L14.5767 29.9941L14.5649 29.9938L14.5581 29.9936ZM14.516 29.9923L14.5291 29.9927L14.5167 29.9923L14.5054 29.992L14.516 29.9923ZM15.4833 29.9923L15.4709 29.9927L15.484 29.9923L15.4946 29.992L15.4833 29.9923ZM15.5314 29.9907L15.5248 29.991L15.545 29.9903L15.5314 29.9907ZM14.455 29.9903L14.4752 29.991L14.4686 29.9907L14.455 29.9903ZM14.4111 29.9886L14.4323 29.9894L14.4205 29.989L14.4111 29.9886ZM15.5795 29.989L15.5677 29.9894L15.5889 29.9886L15.5795 29.989ZM14.368 29.9869L14.3888 29.9878L14.3725 29.9871L14.368 29.9869ZM15.6275 29.9871L15.6112 29.9878L15.632 29.9869L15.6275 29.9871ZM14.3077 29.9842L14.3299 29.9852L14.3245 29.9851L14.3077 29.9842ZM15.6755 29.9851L15.6701 29.9852L15.6923 29.9842L15.6755 29.9851ZM14.2644 29.9822L14.2874 29.9833L14.2765 29.9828L14.2644 29.9822ZM15.7235 29.9828L15.7126 29.9833L15.7356 29.9822L15.7235 29.9828ZM14.2217 29.9801L14.245 29.9812L14.2286 29.9805L14.2217 29.9801ZM15.7714 29.9805L15.755 29.9812L15.7783 29.9801L15.7714 29.9805ZM15.8193 29.978L15.7981 29.9791L15.8169 29.9781L15.8391 29.9769L15.8193 29.978ZM14.1831 29.9781L14.2019 29.9791L14.1807 29.978L14.1609 29.9769L14.1831 29.9781ZM15.8671 29.9753L15.8578 29.9758L15.8815 29.9745L15.8671 29.9753ZM14.1185 29.9745L14.1422 29.9758L14.1329 29.9753L14.1185 29.9745ZM14.0762 29.9719L14.0999 29.9733L14.0851 29.9725L14.0762 29.9719ZM15.9149 29.9725L15.9001 29.9733L15.9238 29.9719L15.9149 29.9725ZM14.0358 29.9694L14.0572 29.9708L14.0372 29.9695L14.0172 29.9682L14.0358 29.9694ZM15.9628 29.9695L15.9428 29.9708L15.9642 29.9694L15.9828 29.9682L15.9628 29.9695ZM16.0104 29.9664L16.0033 29.9669L16.026 29.9654L16.0104 29.9664ZM13.974 29.9654L13.9967 29.9669L13.9896 29.9664L13.974 29.9654ZM13.9318 29.9624L13.954 29.964L13.9419 29.9632L13.9318 29.9624ZM16.0581 29.9632L16.046 29.964L16.0682 29.9624L16.0581 29.9632ZM13.8896 29.9595L13.9101 29.9609L13.8942 29.9598L13.8896 29.9595ZM16.1058 29.9598L16.0899 29.9609L16.1104 29.9595L16.1058 29.9598ZM13.833 29.9552L13.8509 29.9565L13.8466 29.9562L13.833 29.9552ZM16.1534 29.9562L16.1491 29.9565L16.167 29.9552L16.1534 29.9562ZM16.2009 29.9525L16.1924 29.9532L16.2106 29.9517L16.2009 29.9525ZM13.7894 29.9517L13.8076 29.9532L13.7991 29.9525L13.7894 29.9517ZM13.7469 29.9483L13.7624 29.9496L13.7515 29.9487L13.7469 29.9483ZM16.2485 29.9487L16.2376 29.9496L16.2531 29.9483L16.2485 29.9487ZM13.7002 29.9443L13.7048 29.9447L13.704 29.9447L13.7002 29.9443ZM16.296 29.9447L16.2952 29.9447L16.2998 29.9443L16.296 29.9447ZM16.3434 29.9405L16.3392 29.9409L16.3498 29.9399L16.3434 29.9405ZM13.6502 29.9399L13.6608 29.9409L13.6566 29.9405L13.6502 29.9399ZM13.6062 29.936L13.6141 29.9367L13.6092 29.9362L13.6062 29.936ZM16.3908 29.9362L16.3859 29.9367L16.3938 29.936L16.3908 29.9362ZM12.6562 29.8176C5.48912 28.6911 0 22.4815 0 15C0 6.72129 6.72129 0 15 0C23.2787 0 30 6.72129 30 15C30 22.4815 24.5109 28.6911 17.3438 29.8176V19.3359H20.8389L21.5039 15H17.3438V12.1863C17.3438 11 17.9249 9.84375 19.7882 9.84375H21.6797V6.15234C21.6797 6.15234 19.9631 5.85938 18.322 5.85938C14.8956 5.85938 12.6562 7.93594 12.6562 11.6953V15H8.84766V19.3359H12.6562V29.8176Z" fill="#82FE95"/>
</svg>
