<svg width="21" height="21" viewBox="0 0 21 21" fill="none" xmlns="http://www.w3.org/2000/svg">
<path fill-rule="evenodd" clip-rule="evenodd" d="M13.8333 9.66602C13.8333 11.507 12.3409 12.9993 10.5 12.9993C8.65905 12.9993 7.16667 11.507 7.16667 9.66602C7.16667 7.82507 8.65905 6.33268 10.5 6.33268C12.3409 6.33268 13.8333 7.82507 13.8333 9.66602ZM12.5833 9.66602C12.5833 10.8166 11.6506 11.7493 10.5 11.7493C9.34941 11.7493 8.41667 10.8166 8.41667 9.66602C8.41667 8.51542 9.34941 7.58268 10.5 7.58268C11.6506 7.58268 12.5833 8.51542 12.5833 9.66602Z" fill="currentColor"/>
<path fill-rule="evenodd" clip-rule="evenodd" d="M9.27363 18.2925C5.78515 16.5414 3.37425 13.3864 3 9.66602C3 5.52388 6.35786 2.16602 10.5 2.16602C14.6421 2.16602 18 5.52388 18 9.66602C17.6287 13.3572 14.9412 16.4917 11.7068 18.251C10.9512 18.6619 10.0423 18.6784 9.27363 18.2925ZM11.1095 17.1529C10.7121 17.3691 10.2357 17.3768 9.83442 17.1754C6.69245 15.5982 4.59658 12.8128 4.2503 9.604C4.28358 6.18078 7.06891 3.41602 10.5 3.41602C13.931 3.41602 16.7162 6.1806 16.7497 9.60365C16.4072 12.7399 14.0797 15.5374 11.1095 17.1529Z" fill="currentColor"/>
</svg>
