<svg width="38" height="38" viewBox="0 0 38 38" fill="none" xmlns="http://www.w3.org/2000/svg">
<path d="M10.6667 37.4297V27.3333H0.570312V10.6667H10.6667V0.570312H27.3333V10.6667H37.4297V27.3333H27.3333V37.4297H10.6667ZM2.65365 17.9583H12.75C12.9368 17.9583 13.0997 17.9984 13.2385 18.0786C13.3774 18.1589 13.4938 18.271 13.5875 18.4151L16.612 22.926L20.1057 12.4453C20.1911 12.2158 20.316 12.0356 20.4802 11.9047C20.6444 11.7738 20.8429 11.7083 21.0755 11.7083C21.2543 11.7083 21.4243 11.7507 21.5854 11.8354C21.7462 11.9198 21.8714 12.0297 21.9609 12.1651L25.7828 17.9583H35.3464V12.75H25.25V2.65365H12.75V12.75H2.65365V17.9583ZM12.75 35.3464H25.25V25.25H35.3464V20.0417H25.25C25.0757 20.0417 24.9101 19.9957 24.7531 19.9036C24.5962 19.8116 24.4653 19.692 24.3604 19.5448L21.388 15.074L17.8943 25.5547C17.8089 25.7842 17.6753 25.9644 17.4938 26.0953C17.3122 26.2262 17.1012 26.2917 16.8609 26.2917C16.6766 26.2917 16.5149 26.2516 16.376 26.1714C16.2372 26.0911 16.1208 25.979 16.0271 25.8349L12.1651 20.0417H2.65365V25.25H12.75V35.3464Z" fill="#43B94B"/>
</svg>
