<svg width="30" height="39" viewBox="0 0 30 39" fill="none" xmlns="http://www.w3.org/2000/svg">
<path d="M15 19C13.8246 19 12.8364 18.5993 12.0354 17.7979C11.234 16.9969 10.8333 16.0087 10.8333 14.8333C10.8333 13.658 11.234 12.6698 12.0354 11.8688C12.8364 11.0674 13.8246 10.6667 15 10.6667C16.1753 10.6667 17.1635 11.0674 17.9646 11.8688C18.766 12.6698 19.1667 13.658 19.1667 14.8333C19.1667 16.0087 18.766 16.9969 17.9646 17.7979C17.1635 18.5993 16.1753 19 15 19ZM4.58332 38.7115V24.9818C3.26388 23.6835 2.23957 22.1609 1.51041 20.4141C0.78124 18.6672 0.416656 16.8069 0.416656 14.8333C0.416656 10.7622 1.82881 7.31372 4.65311 4.48802C7.47742 1.66267 10.9243 0.25 14.9937 0.25C19.0632 0.25 22.5121 1.66267 25.3406 4.48802C28.1691 7.31372 29.5833 10.7622 29.5833 14.8333C29.5833 16.8069 29.2187 18.6672 28.4896 20.4141C27.7604 22.1609 26.7361 23.6835 25.4167 24.9818V38.7115L15 35.5865L4.58332 38.7115ZM15 27.3333C18.4722 27.3333 21.4236 26.1181 23.8542 23.6875C26.2847 21.2569 27.5 18.3056 27.5 14.8333C27.5 11.3611 26.2847 8.40972 23.8542 5.97917C21.4236 3.54861 18.4722 2.33333 15 2.33333C11.5278 2.33333 8.57638 3.54861 6.14582 5.97917C3.71527 8.40972 2.49999 11.3611 2.49999 14.8333C2.49999 18.3056 3.71527 21.2569 6.14582 23.6875C8.57638 26.1181 11.5278 27.3333 15 27.3333ZM6.66666 35.7589L15 33.4229L23.3333 35.7589V26.7365C22.1715 27.591 20.8779 28.2514 19.4526 28.7177C18.0269 29.1837 16.5397 29.4167 14.9911 29.4167C13.4425 29.4167 11.9585 29.1837 10.5391 28.7177C9.11926 28.2514 7.82846 27.591 6.66666 26.7365V35.7589Z" fill="#43B94B"/>
</svg>
