<svg width="21" height="17" viewBox="0 0 21 17" fill="none" xmlns="http://www.w3.org/2000/svg">
<path d="M2.12988 16.2393C1.57988 16.2393 1.10905 16.0434 0.717383 15.6518C0.325716 15.2601 0.129883 14.7893 0.129883 14.2393V2.23926C0.129883 1.68926 0.325716 1.21842 0.717383 0.826758C1.10905 0.435091 1.57988 0.239258 2.12988 0.239258H18.1299C18.6799 0.239258 19.1507 0.435091 19.5424 0.826758C19.934 1.21842 20.1299 1.68926 20.1299 2.23926V14.2393C20.1299 14.7893 19.934 15.2601 19.5424 15.6518C19.1507 16.0434 18.6799 16.2393 18.1299 16.2393H2.12988ZM10.1299 9.23926L18.1299 4.23926V2.23926L10.1299 7.23926L2.12988 2.23926V4.23926L10.1299 9.23926Z" fill="white"/>
</svg>
