<svg width="19" height="19" viewBox="0 0 19 19" fill="none" xmlns="http://www.w3.org/2000/svg">
<path d="M17.0799 18.2393C14.9965 18.2393 12.9382 17.7851 10.9049 16.8768C8.87155 15.9684 7.02155 14.6809 5.35488 13.0143C3.68822 11.3476 2.40072 9.49759 1.49238 7.46426C0.58405 5.43092 0.129883 3.37259 0.129883 1.28926C0.129883 0.989258 0.229883 0.739258 0.429883 0.539258C0.629883 0.339258 0.879883 0.239258 1.17988 0.239258H5.22988C5.46322 0.239258 5.67155 0.318424 5.85488 0.476758C6.03822 0.635091 6.14655 0.822591 6.17988 1.03926L6.82988 4.53926C6.86322 4.80592 6.85488 5.03092 6.80488 5.21426C6.75488 5.39759 6.66322 5.55592 6.52988 5.68926L4.10488 8.13926C4.43822 8.75592 4.83405 9.35176 5.29238 9.92676C5.75072 10.5018 6.25488 11.0559 6.80488 11.5893C7.32155 12.1059 7.86322 12.5851 8.42988 13.0268C8.99655 13.4684 9.59655 13.8726 10.2299 14.2393L12.5799 11.8893C12.7299 11.7393 12.9257 11.6268 13.1674 11.5518C13.409 11.4768 13.6465 11.4559 13.8799 11.4893L17.3299 12.1893C17.5632 12.2559 17.7549 12.3768 17.9049 12.5518C18.0549 12.7268 18.1299 12.9226 18.1299 13.1393V17.1893C18.1299 17.4893 18.0299 17.7393 17.8299 17.9393C17.6299 18.1393 17.3799 18.2393 17.0799 18.2393Z" fill="white"/>
</svg>
