<svg width="30" height="30" viewBox="0 0 30 30" fill="none" xmlns="http://www.w3.org/2000/svg">
<path d="M20.3957 10.7609L11.9784 18.2609C11.8705 18.3696 11.8705 18.4783 11.8705 18.587L11.5468 21.5217C11.5468 21.6304 11.4388 21.6304 11.3309 21.5217L10.036 17.1739C9.92806 16.9565 10.036 16.7391 10.2518 16.6304L20.0719 10.4348C20.3957 10.3261 20.6115 10.6522 20.3957 10.7609Z" fill="#82FE95"/>
<path d="M15 0C10.8993 0 7.1223 1.63043 4.42446 4.34783C1.72662 7.06522 0 10.8696 0 15C0 19.1304 1.61871 22.9348 4.42446 25.6522C7.1223 28.3696 10.8993 30 15 30C19.1007 30 22.8777 28.3696 25.5755 25.6522C28.2734 22.9348 30 19.1304 30 15C29.8921 6.73913 23.2014 0 15 0ZM23.8489 8.58696L20.8273 23.3696C20.7194 24.0217 19.8561 24.3478 19.3165 23.913L14.6763 20.4348L12.3022 22.8261C11.8705 23.2609 11.223 23.0435 11.0072 22.5L9.28058 17.0652L4.7482 15.6522C4.10072 15.4348 4.10072 14.6739 4.7482 14.4565L22.7698 7.3913C23.3094 7.28261 24.0647 7.82609 23.8489 8.58696Z" fill="#82FE95"/>
</svg>
