<svg width="30" height="30" viewBox="0 0 30 30" fill="none" xmlns="http://www.w3.org/2000/svg">
<path fill-rule="evenodd" clip-rule="evenodd" d="M15 0C23.2787 0 30 6.72129 30 15C30 23.2787 23.2787 30 15 30C6.72129 30 0 23.2787 0 15C0 6.72129 6.72129 0 15 0ZM22.1207 7.90102C20.3251 6.10383 17.9371 5.11365 15.3929 5.11266C10.1506 5.11266 5.88404 9.37758 5.88199 14.6198C5.88129 16.2956 6.31922 17.9313 7.15148 19.3731L5.80219 24.3L10.8441 22.9779C12.2332 23.7353 13.7972 24.1345 15.3891 24.1352H15.393C20.6347 24.1352 24.9016 19.8697 24.9037 14.6274C24.9047 12.0869 23.9164 9.69809 22.1207 7.90102ZM15.3929 22.5294H15.3898C13.9713 22.5288 12.58 22.1479 11.3663 21.4279L11.0776 21.2565L8.08576 22.0412L8.88434 19.125L8.69637 18.8261C7.90506 17.5679 7.48717 16.1136 7.48775 14.6204C7.48951 10.2633 11.0357 6.71842 15.3961 6.71842C17.5075 6.71924 19.4923 7.54236 20.9848 9.03603C22.4773 10.5298 23.2987 12.5153 23.2979 14.6268C23.2962 18.9843 19.75 22.5293 15.3929 22.5294ZM19.729 16.6108C19.4914 16.4919 18.323 15.9172 18.1051 15.8379C17.8873 15.7586 17.7289 15.7189 17.5705 15.9568C17.4121 16.1946 16.9566 16.7297 16.818 16.8883C16.6794 17.0468 16.5408 17.0667 16.3031 16.9477C16.0655 16.8289 15.2998 16.578 14.3921 15.7686C13.6856 15.1387 13.2087 14.3606 13.07 14.1229C12.9315 13.885 13.0553 13.7565 13.1743 13.638C13.2812 13.5316 13.4119 13.3605 13.5307 13.2218C13.6495 13.083 13.6891 12.984 13.7684 12.8255C13.8476 12.6669 13.808 12.5282 13.7486 12.4092C13.6891 12.2903 13.2139 11.121 13.0158 10.6453C12.823 10.1821 12.6271 10.2448 12.4812 10.2375C12.3427 10.2306 12.1842 10.2291 12.0257 10.2291C11.8673 10.2291 11.6099 10.2886 11.392 10.5264C11.1742 10.7643 10.5603 11.339 10.5603 12.5083C10.5603 13.6777 11.4118 14.8073 11.5307 14.9659C11.6495 15.1245 13.2064 17.524 15.5903 18.5531C16.1572 18.7978 16.5999 18.944 16.945 19.0535C17.5143 19.2343 18.0323 19.2088 18.4419 19.1476C18.8984 19.0794 19.8479 18.5729 20.0459 18.018C20.2438 17.463 20.2438 16.9874 20.1845 16.8883C20.1251 16.7892 19.9666 16.7297 19.729 16.6108Z" fill="#82FE95"/>
</svg>
